Coordinates
version=1
nRows=17
nColumns=40
inDegrees=yes

Units are S.I. units (second, meters, Newtons, ...)
If the header above contains a line with 'inDegrees', this indicates whether rotational values are in degrees (yes) or radians (no).

endheader
time	pelvis_tilt	pelvis_list	pelvis_rotation	pelvis_tx	pelvis_ty	pelvis_tz	hip_flexion_r	hip_adduction_r	hip_rotation_r	knee_angle_r	knee_angle_r_beta	ankle_angle_r	subtalar_angle_r	mtp_angle_r	hip_flexion_l	hip_adduction_l	hip_rotation_l	knee_angle_l	knee_angle_l_beta	ankle_angle_l	subtalar_angle_l	mtp_angle_l	lumbar_extension	lumbar_bending	lumbar_rotation	arm_flex_r	arm_add_r	arm_rot_r	elbow_flex_r	pro_sup_r	wrist_flex_r	wrist_dev_r	arm_flex_l	arm_add_l	arm_rot_l	elbow_flex_l	pro_sup_l	wrist_flex_l	wrist_dev_l
      0.82000000	     -5.60425348	    -11.22261605	     84.96284940	      0.26101437	      0.92330501	      0.26695297	     38.03496938	     -1.25765309	      4.30907962	     49.01981177	      0.85555711	      5.14708870	      0.00000000	      0.00000000	      9.61403503	      8.75701123	      2.64689890	      2.03459519	      0.03551039	      4.71689935	      0.00000000	      0.00000000	      6.61757432	     -5.29986383	     -4.30471898	      0.00000000	      0.00000000	      0.00000000	      0.00000000	      0.00000000	      0.00000000	      0.00000000	      0.00000000	      0.00000000	      0.00000000	      0.00000000	      0.00000000	      0.00000000	      0.00000000
      0.83000000	     -5.33727384	    -11.23663529	     85.33159362	      0.26072975	      0.92196085	      0.24797288	     39.11881788	     -1.13805199	      3.89492641	     45.39735683	      0.79233335	      5.67269571	      0.00000000	      0.00000000	      7.67526644	      8.63887896	      3.51535295	      0.94786838	      0.01654342	      5.26605417	      0.00000000	      0.00000000	      6.50403928	     -4.99703580	     -4.77513124	      0.00000000	      0.00000000	      0.00000000	      0.00000000	      0.00000000	      0.00000000	      0.00000000	      0.00000000	      0.00000000	      0.00000000	      0.00000000	      0.00000000	      0.00000000	      0.00000000
      0.84000000	     -5.19331192	    -10.92297039	     85.80790847	      0.26026197	      0.92028689	      0.22864382	     39.69600810	     -1.31524307	      3.31827750	     41.52367080	      0.72472477	      6.06354101	     -0.00000000	     -0.00000000	      5.34528017	      8.67205028	      4.59633394	     -0.17553236	     -0.00306362	      5.85664059	     -0.00000000	     -0.00000000	      6.01902701	     -4.88505063	     -5.38503970	      0.00000000	      0.00000000	      0.00000000	      0.00000000	      0.00000000	      0.00000000	      0.00000000	      0.00000000	     -0.00000000	     -0.00000000	      0.00000000	      0.00000000	     -0.00000000	      0.00000000
      0.85000000	     -5.10831856	    -10.66323495	     86.31452750	      0.25981028	      0.91784955	      0.20931260	     40.20926995	     -1.58181819	      2.67349398	     37.42907186	      0.65326054	      6.38701117	      0.00000000	      0.00000000	      3.20626797	      8.72182751	      5.57497801	     -1.04531398	     -0.01824417	      6.53660913	      0.00000000	      0.00000000	      5.60610971	     -4.84861952	     -5.91979317	      0.00000000	      0.00000000	      0.00000000	      0.00000000	      0.00000000	      0.00000000	      0.00000000	      0.00000000	      0.00000000	      0.00000000	      0.00000000	      0.00000000	      0.00000000	      0.00000000
      0.86000000	     -5.10581064	    -10.34471781	     86.87296206	      0.25933140	      0.91489131	      0.18987739	     40.53934287	     -1.98322024	      1.94041121	     33.16463582	      0.57883209	      6.59250782	      0.00000000	      0.00000000	      1.06165818	      8.82147354	      6.54443637	     -1.78547166	     -0.03116236	      7.31812158	      0.00000000	      0.00000000	      5.12694721	     -4.91960122	     -6.48307384	      0.00000000	      0.00000000	      0.00000000	      0.00000000	      0.00000000	      0.00000000	      0.00000000	      0.00000000	      0.00000000	      0.00000000	      0.00000000	      0.00000000	      0.00000000	      0.00000000
      0.87000000	     -5.15312312	    -10.08733173	     87.46514555	      0.25887802	      0.91136076	      0.17037745	     40.81790756	     -2.44223123	      1.17302161	     28.77348775	      0.50219210	      6.72342917	      0.00000000	      0.00000000	     -0.94911120	      8.92091212	      7.41147499	     -2.36879845	     -0.04134333	      8.17358836	      0.00000000	      0.00000000	      4.73499583	     -5.05290087	     -7.02731953	      0.00000000	      0.00000000	      0.00000000	      0.00000000	      0.00000000	      0.00000000	      0.00000000	      0.00000000	      0.00000000	      0.00000000	      0.00000000	      0.00000000	      0.00000000	      0.00000000
      0.88000000	     -5.27717886	     -9.68752968	     88.04457684	      0.25848368	      0.90761437	      0.15070794	     40.83755716	     -2.93426390	      0.56425743	     24.33239756	      0.42468045	      6.77416613	      0.00000000	     -0.00000000	     -3.14970797	      9.04774850	      8.37299576	     -2.97859525	     -0.05198629	      8.96493313	      0.00000000	     -0.00000000	      4.19463500	     -5.27053921	     -7.53870154	     -0.00000000	     -0.00000000	      0.00000000	      0.00000000	      0.00000000	     -0.00000000	     -0.00000000	     -0.00000000	      0.00000000	     -0.00000000	      0.00000000	      0.00000000	     -0.00000000	     -0.00000000
      0.89000000	     -5.47847327	     -9.40727978	     88.57093225	      0.25828155	      0.90346089	      0.13105337	     40.87952499	     -3.42192138	      0.21942474	     19.89910048	      0.34730482	      6.85096430	      0.00000000	      0.00000000	     -5.16563302	      9.18543205	      9.21414266	     -3.49040782	     -0.06091911	      9.69006817	      0.00000000	      0.00000000	      3.75617919	     -5.57885783	     -7.98766899	      0.00000000	      0.00000000	      0.00000000	      0.00000000	      0.00000000	      0.00000000	      0.00000000	      0.00000000	      0.00000000	      0.00000000	      0.00000000	      0.00000000	      0.00000000	      0.00000000
      0.90000000	     -5.64952925	     -8.92396326	     89.03908374	      0.25828841	      0.89939181	      0.11100070	     40.58299377	     -3.82137846	      0.09259942	     15.58414944	      0.27199472	      6.89541997	      0.00000000	      0.00000000	     -7.51850169	      9.22269486	     10.16594335	     -4.15531831	     -0.07252399	     10.26966825	      0.00000000	      0.00000000	      3.15299453	     -5.86314355	     -8.25328535	      0.00000000	      0.00000000	      0.00000000	      0.00000000	      0.00000000	      0.00000000	      0.00000000	      0.00000000	      0.00000000	      0.00000000	      0.00000000	      0.00000000	      0.00000000	      0.00000000
      0.91000000	     -5.87858785	     -8.68742602	     89.38445239	      0.25848788	      0.89491636	      0.09092510	     40.47781792	     -4.15604341	      0.55566144	     11.54270612	      0.20145823	      7.04609220	      0.00000000	      0.00000000	     -9.47690260	      9.29381449	     10.84681886	     -4.57812780	     -0.07990340	     10.81575512	      0.00000000	      0.00000000	      2.85804625	     -6.18195225	     -8.39418957	      0.00000000	      0.00000000	      0.00000000	      0.00000000	      0.00000000	      0.00000000	      0.00000000	      0.00000000	      0.00000000	      0.00000000	      0.00000000	      0.00000000	      0.00000000	      0.00000000
      0.92000000	     -6.13689890	     -8.55207728	     89.59054329	      0.25890640	      0.89032421	      0.07062871	     40.43093071	     -4.43539989	      1.47213241	      7.96996068	      0.13910206	      7.30735092	      0.00000000	      0.00000000	    -11.25451522	      9.38865514	     11.35423560	     -4.84681893	     -0.08459295	     11.28791639	      0.00000000	      0.00000000	      2.72315914	     -6.51728219	     -8.35561665	      0.00000000	      0.00000000	      0.00000000	      0.00000000	      0.00000000	      0.00000000	      0.00000000	      0.00000000	      0.00000000	      0.00000000	      0.00000000	      0.00000000	      0.00000000	      0.00000000
      0.93000000	     -6.42359403	     -8.61958246	     89.71655694	      0.25941522	      0.88561313	      0.05014335	     40.61865766	     -4.71782302	      2.59708706	      5.14662957	      0.08982563	      7.77646519	      0.00000000	      0.00000000	    -12.66930387	      9.53001415	     11.63648165	     -4.82990088	     -0.08429767	     11.60018025	      0.00000000	      0.00000000	      2.86610816	     -6.87733920	     -8.22548311	      0.00000000	      0.00000000	      0.00000000	      0.00000000	      0.00000000	      0.00000000	      0.00000000	      0.00000000	      0.00000000	      0.00000000	      0.00000000	      0.00000000	      0.00000000	      0.00000000
      0.94000000	     -6.56778803	     -8.53480467	     89.77771717	      0.26009218	      0.88142755	      0.02916067	     40.61248427	     -4.84104365	      3.50663793	      3.15884386	      0.05513223	      8.21437393	      0.00000000	     -0.00000000	    -14.23181927	      9.52775792	     11.82726892	     -4.76439650	     -0.08315441	     11.76663699	     -0.00000000	      0.00000000	      2.90623010	     -7.05606959	     -7.92273239	      0.00000000	     -0.00000000	      0.00000000	      0.00000000	      0.00000000	     -0.00000000	     -0.00000000	      0.00000000	      0.00000000	      0.00000000	      0.00000000	      0.00000000	     -0.00000000	      0.00000000
      0.95000000	     -6.74739249	     -8.81533888	     89.82028426	      0.26070308	      0.87715269	      0.00810372	     41.20419170	     -4.98863489	      3.66722587	      2.43327225	      0.04246861	      8.53817855	      0.00000000	      0.00000000	    -15.18336233	      9.60168930	     11.63460275	     -4.33113750	     -0.07559261	     11.71203816	      0.00000000	      0.00000000	      3.39847070	     -7.27944138	     -7.57350677	      0.00000000	      0.00000000	      0.00000000	      0.00000000	      0.00000000	      0.00000000	      0.00000000	      0.00000000	      0.00000000	      0.00000000	      0.00000000	      0.00000000	      0.00000000	      0.00000000
      0.96000000	     -6.66151621	     -8.95536441	     89.84551196	      0.26158371	      0.87370555	     -0.01333284	     41.37061514	     -4.79374134	      4.71409524	      2.24237895	      0.03913690	      8.98113060	      0.00000000	      0.00000000	    -16.05620009	      9.43094187	     11.40514296	     -3.46758108	     -0.06052071	     11.55179822	      0.00000000	      0.00000000	      3.77355341	     -7.19552434	     -7.16113685	      0.00000000	      0.00000000	      0.00000000	      0.00000000	      0.00000000	      0.00000000	      0.00000000	      0.00000000	      0.00000000	      0.00000000	      0.00000000	      0.00000000	      0.00000000	      0.00000000
      0.97000000	     -6.47790819	     -9.19664933	     89.86296970	      0.26251598	      0.87067117	     -0.03500823	     41.78769563	     -4.48237002	      4.83928438	      3.14690086	      0.05492378	      8.87680761	      0.00000000	      0.00000000	    -16.60395844	      9.18428586	     10.69747049	     -2.28013323	     -0.03979583	     11.03557133	      0.00000000	      0.00000000	      4.30254700	     -7.00434552	     -6.69031741	      0.00000000	      0.00000000	      0.00000000	      0.00000000	      0.00000000	      0.00000000	      0.00000000	      0.00000000	      0.00000000	      0.00000000	      0.00000000	      0.00000000	      0.00000000	      0.00000000
      0.98000000	     -6.17535832	     -9.50523031	     89.87437742	      0.26349130	      0.86818345	     -0.05687058	     42.25944226	     -4.03230730	      4.74559528	      4.70389875	      0.08209852	      8.18222306	     -0.00000000	     -0.00000000	    -16.82106587	      8.82895596	      9.72942231	     -0.70790546	     -0.01235528	     10.17827496	      0.00000000	      0.00000000	      4.95106132	     -6.67375198	     -6.18310198	     -0.00000000	     -0.00000000	     -0.00000000	      0.00000000	      0.00000000	      0.00000000	     -0.00000000	      0.00000000	     -0.00000000	      0.00000000	      0.00000000	      0.00000000	     -0.00000000	      0.00000000
